<svg viewBox="0 0 1400 900" xmlns="http://www.w3.org/2000/svg">
  <!-- Background -->
  <rect width="1400" height="900" fill="#f8fafc"/>
  
  <!-- Title -->
  <text x="700" y="40" text-anchor="middle" fill="#1e293b" font-size="24" font-weight="bold">NoTamperData API Sequence Diagram</text>
  
  <!-- Actors -->
  <rect x="80" y="80" width="120" height="60" rx="8" fill="#4285f4" stroke="#1565c0" stroke-width="2"/>
  <text x="140" y="105" text-anchor="middle" fill="white" font-size="12" font-weight="bold">Google Forms</text>
  <text x="140" y="120" text-anchor="middle" fill="white" font-size="12">Add-on</text>
  
  <rect x="300" y="80" width="120" height="60" rx="8" fill="#ff6d00" stroke="#e65100" stroke-width="2"/>
  <text x="360" y="105" text-anchor="middle" fill="white" font-size="12" font-weight="bold">API Gateway</text>
  <text x="360" y="120" text-anchor="middle" fill="white" font-size="12">External App</text>
  
  <rect x="520" y="80" width="120" height="60" rx="8" fill="#059669" stroke="#047857" stroke-width="2"/>
  <text x="580" y="105" text-anchor="middle" fill="white" font-size="12" font-weight="bold">Blockchain</text>
  <text x="580" y="120" text-anchor="middle" fill="white" font-size="12">Service</text>
  
  <rect x="740" y="80" width="120" height="60" rx="8" fill="#0033ad" stroke="#001d6b" stroke-width="2"/>
  <text x="800" y="105" text-anchor="middle" fill="white" font-size="12" font-weight="bold">Cardano</text>
  <text x="800" y="120" text-anchor="middle" fill="white" font-size="12">Network</text>
  
  <rect x="960" y="80" width="120" height="60" rx="8" fill="#dc2626" stroke="#b91c1c" stroke-width="2"/>
  <text x="1020" y="105" text-anchor="middle" fill="white" font-size="12" font-weight="bold">Verification</text>
  <text x="1020" y="120" text-anchor="middle" fill="white" font-size="12">Engine</text>
  
  <rect x="1180" y="80" width="120" height="60" rx="8" fill="#7c3aed" stroke="#6b21a8" stroke-width="2"/>
  <text x="1240" y="105" text-anchor="middle" fill="white" font-size="12" font-weight="bold">Blockfrost</text>
  <text x="1240" y="120" text-anchor="middle" fill="white" font-size="12">API</text>
  
  <!-- Lifelines -->
  <line x1="140" y1="140" x2="140" y2="820" stroke="#64748b" stroke-width="2" stroke-dasharray="5,5"/>
  <line x1="360" y1="140" x2="360" y2="820" stroke="#64748b" stroke-width="2" stroke-dasharray="5,5"/>
  <line x1="580" y1="140" x2="580" y2="820" stroke="#64748b" stroke-width="2" stroke-dasharray="5,5"/>
  <line x1="800" y1="140" x2="800" y2="820" stroke="#64748b" stroke-width="2" stroke-dasharray="5,5"/>
  <line x1="1020" y1="140" x2="1020" y2="820" stroke="#64748b" stroke-width="2" stroke-dasharray="5,5"/>
  <line x1="1240" y1="140" x2="1240" y2="820" stroke="#64748b" stroke-width="2" stroke-dasharray="5,5"/>
  
  <!-- Hash Storage Flow -->
  <text x="50" y="180" fill="#1e293b" font-size="14" font-weight="bold">Hash Storage Flow</text>
  
  <!-- 1. Form Submission Trigger -->
  <rect x="50" y="200" width="180" height="30" rx="3" fill="#e8f0fe" stroke="#4285f4" stroke-width="1"/>
  <text x="140" y="220" text-anchor="middle" fill="#1565c0" font-size="11">1. Form submission triggers add-on</text>
  
  <!-- 2. Data Processing -->
  <rect x="60" y="240" width="160" height="30" rx="3" fill="#e8f0fe" stroke="#4285f4" stroke-width="1"/>
  <text x="140" y="260" text-anchor="middle" fill="#1565c0" font-size="11">2. Process response data</text>
  
  <!-- 3. Hash Generation -->
  <rect x="60" y="280" width="160" height="30" rx="3" fill="#e8f0fe" stroke="#4285f4" stroke-width="1"/>
  <text x="140" y="300" text-anchor="middle" fill="#1565c0" font-size="11">3. Generate SHA-256 hash</text>
  
  <!-- 4. API Call to Store Hash -->
  <line x1="140" y1="330" x2="360" y2="330" stroke="#f44336" stroke-width="2" marker-end="url(#arrow)"/>
  <rect x="180" y="315" width="140" height="30" rx="3" fill="#ffebee" stroke="#f44336" stroke-width="1"/>
  <text x="250" y="335" text-anchor="middle" fill="#c62828" font-size="11">POST /api/storehash</text>
  
  <!-- 5. Authentication & Validation -->
  <rect x="280" y="355" width="160" height="30" rx="3" fill="#fff3e0" stroke="#ff6d00" stroke-width="1"/>
  <text x="360" y="375" text-anchor="middle" fill="#e65100" font-size="11">5. Validate access token & input</text>
  
  <!-- 6. Forward to Blockchain Service -->
  <line x1="360" y1="405" x2="580" y2="405" stroke="#059669" stroke-width="2" marker-end="url(#arrow)"/>
  <rect x="400" y="390" width="140" height="30" rx="3" fill="#d1fae5" stroke="#059669" stroke-width="1"/>
  <text x="470" y="410" text-anchor="middle" fill="#047857" font-size="11">6. Build transaction</text>
  
  <!-- 7. Submit to Cardano -->
  <line x1="580" y1="440" x2="800" y2="440" stroke="#0033ad" stroke-width="2" marker-end="url(#arrow)"/>
  <rect x="620" y="425" width="140" height="30" rx="3" fill="#dbeafe" stroke="#0033ad" stroke-width="1"/>
  <text x="690" y="445" text-anchor="middle" fill="#1d4ed8" font-size="11">7. Submit transaction</text>
  
  <!-- 8. Transaction Confirmation -->
  <line x1="800" y1="475" x2="580" y2="475" stroke="#0033ad" stroke-width="2" marker-end="url(#arrow)" stroke-dasharray="3,3"/>
  <rect x="620" y="460" width="140" height="30" rx="3" fill="#dbeafe" stroke="#0033ad" stroke-width="1"/>
  <text x="690" y="480" text-anchor="middle" fill="#1d4ed8" font-size="11">8. TX confirmation</text>
  
  <!-- 9. Return Success -->
  <line x1="580" y1="510" x2="360" y2="510" stroke="#059669" stroke-width="2" marker-end="url(#arrow)" stroke-dasharray="3,3"/>
  <rect x="400" y="495" width="140" height="30" rx="3" fill="#d1fae5" stroke="#059669" stroke-width="1"/>
  <text x="470" y="515" text-anchor="middle" fill="#047857" font-size="11">9. Return TX hash</text>
  
  <!-- 10. API Response -->
  <line x1="360" y1="545" x2="140" y2="545" stroke="#f44336" stroke-width="2" marker-end="url(#arrow)" stroke-dasharray="3,3"/>
  <rect x="180" y="530" width="140" height="30" rx="3" fill="#ffebee" stroke="#f44336" stroke-width="1"/>
  <text x="250" y="550" text-anchor="middle" fill="#c62828" font-size="11">10. Success response</text>
  
  <!-- Verification Flow -->
  <text x="50" y="600" fill="#1e293b" font-size="14" font-weight="bold">Hash Verification Flow</text>
  
  <!-- 11. Verification Request -->
  <line x1="140" y1="630" x2="1020" y2="630" stroke="#dc2626" stroke-width="2" marker-end="url(#arrow)"/>
  <rect x="500" y="615" width="140" height="30" rx="3" fill="#fef2f2" stroke="#dc2626" stroke-width="1"/>
  <text x="570" y="635" text-anchor="middle" fill="#b91c1c" font-size="11">POST /api/verify</text>
  
  <!-- 12. Query Blockfrost -->
  <line x1="1020" y1="665" x2="1240" y2="665" stroke="#7c3aed" stroke-width="2" marker-end="url(#arrow)"/>
  <rect x="1080" y="650" width="120" height="30" rx="3" fill="#f3e8ff" stroke="#7c3aed" stroke-width="1"/>
  <text x="1140" y="670" text-anchor="middle" fill="#6b21a8" font-size="11">12. Query metadata</text>
  
  <!-- 13. Metadata Response -->
  <line x1="1240" y1="700" x2="1020" y2="700" stroke="#7c3aed" stroke-width="2" marker-end="url(#arrow)" stroke-dasharray="3,3"/>
  <rect x="1080" y="685" width="120" height="30" rx="3" fill="#f3e8ff" stroke="#7c3aed" stroke-width="1"/>
  <text x="1140" y="705" text-anchor="middle" fill="#6b21a8" font-size="11">13. TX metadata</text>
  
  <!-- 14. Verification Result -->
  <line x1="1020" y1="735" x2="140" y2="735" stroke="#dc2626" stroke-width="2" marker-end="url(#arrow)" stroke-dasharray="3,3"/>
  <rect x="500" y="720" width="140" height="30" rx="3" fill="#fef2f2" stroke="#dc2626" stroke-width="1"/>
  <text x="570" y="740" text-anchor="middle" fill="#b91c1c" font-size="11">14. Verification result</text>
  
  <!-- Error Handling -->
  <rect x="50" y="780" width="1300" height="60" rx="5" fill="#fef2f2" stroke="#dc2626" stroke-width="1"/>
  <text x="700" y="800" text-anchor="middle" fill="#dc2626" font-size="14" font-weight="bold">Error Handling &amp; Retry Logic</text>
  <text x="70" y="820" fill="#dc2626" font-size="11">• Network failures: Exponential backoff with max 3 retries</text>
  <text x="70" y="835" fill="#dc2626" font-size="11">• API rate limits: Queue requests and retry after delay</text>
  
  <text x="700" y="820" fill="#dc2626" font-size="11">• Blockchain congestion: Monitor and adjust fees dynamically</text>
  <text x="700" y="835" fill="#dc2626" font-size="11">• UTxO collisions: Automatic retry with different UTxO</text>
  
  <!-- Request/Response Details -->
  <rect x="50" y="850" width="1300" height="40" rx="5" fill="#f0f9ff" stroke="#0369a1" stroke-width="1"/>
  <text x="700" y="870" text-anchor="middle" fill="#0369a1" font-size="14" font-weight="bold">API Request/Response Structure</text>
  <text x="70" y="885" fill="#0369a1" font-size="11">Store Hash: {"hash": "a1b2c3...", "formId": "123", "responseId": "456"} → {"success": true, "txHash": "def789..."}  |  Verify: {"hash": "a1b2c3..."} → {"verified": true, "txHash": "def789...", "timestamp": 1234567890}</text>
  
  <!-- Arrow marker definition -->
  <defs>
    <marker id="arrow" markerWidth="10" markerHeight="7" refX="9" refY="3.5" orient="auto">
      <polygon points="0 0, 10 3.5, 0 7" fill="#666"/>
    </marker>
  </defs>
</svg>